<?xml version="1.0" encoding="UTF-8"?>
<svg xmlns="http://www.w3.org/2000/svg" viewBox="0 0 1280 720">
	<rect width="1280" height="720" fill="#FFFFFF" />

	<g>
		<rect x="34" y="28" width="44" height="35" fill="#92D050" stroke="#85BB05" stroke-width="1.5" />
		<rect x="86" y="28" width="8" height="35" fill="#92D050" stroke="#85BB05" stroke-width="1.5" />
		<line x1="28" y1="76" x2="710" y2="76" stroke="#92D050" stroke-width="3.5" />
		<line x1="728" y1="76" x2="761" y2="76" stroke="#7F7F7F" stroke-width="3.5" />
		<line x1="778" y1="76" x2="812" y2="76" stroke="#7F7F7F" stroke-width="3.5" />
		<text x="1114" y="48" font-family="Microsoft YaHei, Arial, sans-serif" font-size="24" font-weight="700" fill="#88C100">RECRUIT</text>
	</g>

	<g>
		<text x="106" y="67" font-family="Microsoft YaHei, Arial, sans-serif" font-size="37" font-weight="700" fill="#333F50">目录</text>
	</g>

	<g>
		<path fill="#FFFFFF" stroke="#E5E7EB" stroke-width="1.2" d="M48,182 H1232 A8,8 0 0 1 1240,190 V572 A8,8 0 0 1 1232,580 H48 A8,8 0 0 1 40,572 V190 A8,8 0 0 1 48,182 Z" />

		<g transform="translate(0 0)">
			<polygon points="68,208 121,208 108,258 55,258" fill="#88C100" />
			<text x="88" y="242" text-anchor="middle" font-family="Microsoft YaHei, Arial, sans-serif" font-size="28" font-weight="700" fill="#FFFFFF">01</text>
			<text x="150" y="242" font-family="Microsoft YaHei, Arial, sans-serif" font-size="25" font-weight="700" fill="#333F50">个人基本情况</text>
			<line x1="450" y1="235" x2="1158" y2="235" stroke="#CFE1A8" stroke-width="1.5" stroke-dasharray="4 4" />
			<polygon points="1118,226 1235,226 1218,236 1101,236" fill="#98D600" />
		</g>

		<g transform="translate(0 52)">
			<polygon points="68,208 121,208 108,258 55,258" fill="#88C100" />
			<text x="88" y="242" text-anchor="middle" font-family="Microsoft YaHei, Arial, sans-serif" font-size="28" font-weight="700" fill="#FFFFFF">02</text>
			<text x="150" y="242" font-family="Microsoft YaHei, Arial, sans-serif" font-size="25" font-weight="700" fill="#333F50">岗位认知</text>
			<line x1="450" y1="235" x2="1158" y2="235" stroke="#CFE1A8" stroke-width="1.5" stroke-dasharray="4 4" />
			<polygon points="1110,226 1235,226 1218,236 1093,236" fill="#98D600" />
		</g>

		<g transform="translate(0 104)">
			<polygon points="68,208 121,208 108,258 55,258" fill="#88C100" />
			<text x="88" y="242" text-anchor="middle" font-family="Microsoft YaHei, Arial, sans-serif" font-size="28" font-weight="700" fill="#FFFFFF">03</text>
			<text x="150" y="242" font-family="Microsoft YaHei, Arial, sans-serif" font-size="25" font-weight="700" fill="#333F50">个人绩效</text>
			<line x1="450" y1="235" x2="1158" y2="235" stroke="#CFE1A8" stroke-width="1.5" stroke-dasharray="4 4" />
			<polygon points="1116,226 1235,226 1218,236 1099,236" fill="#98D600" />
		</g>

		<g transform="translate(0 156)">
			<polygon points="68,208 121,208 108,258 55,258" fill="#88C100" />
			<text x="88" y="242" text-anchor="middle" font-family="Microsoft YaHei, Arial, sans-serif" font-size="28" font-weight="700" fill="#FFFFFF">04</text>
			<text x="150" y="242" font-family="Microsoft YaHei, Arial, sans-serif" font-size="25" font-weight="700" fill="#333F50">关键问题突破举例</text>
			<line x1="450" y1="235" x2="1158" y2="235" stroke="#CFE1A8" stroke-width="1.5" stroke-dasharray="4 4" />
			<polygon points="1090,226 1235,226 1218,236 1073,236" fill="#98D600" />
		</g>

		<g transform="translate(0 208)">
			<polygon points="68,208 121,208 108,258 55,258" fill="#88C100" />
			<text x="88" y="242" text-anchor="middle" font-family="Microsoft YaHei, Arial, sans-serif" font-size="28" font-weight="700" fill="#FFFFFF">05</text>
			<text x="150" y="242" font-family="Microsoft YaHei, Arial, sans-serif" font-size="25" font-weight="700" fill="#333F50">下一步工作规划</text>
			<line x1="450" y1="235" x2="1158" y2="235" stroke="#CFE1A8" stroke-width="1.5" stroke-dasharray="4 4" />
			<polygon points="1108,226 1235,226 1218,236 1091,236" fill="#98D600" />
		</g>

		<g transform="translate(0 260)">
			<polygon points="68,208 121,208 108,258 55,258" fill="#88C100" />
			<text x="88" y="242" text-anchor="middle" font-family="Microsoft YaHei, Arial, sans-serif" font-size="28" font-weight="700" fill="#FFFFFF">06</text>
			<text x="150" y="242" font-family="Microsoft YaHei, Arial, sans-serif" font-size="25" font-weight="700" fill="#333F50">个人的不足和提升计划</text>
			<line x1="450" y1="235" x2="1158" y2="235" stroke="#CFE1A8" stroke-width="1.5" stroke-dasharray="4 4" />
			<polygon points="1058,226 1235,226 1218,236 1041,236" fill="#98D600" />
		</g>

		<g transform="translate(0 312)">
			<polygon points="68,208 121,208 108,258 55,258" fill="#88C100" />
			<text x="88" y="242" text-anchor="middle" font-family="Microsoft YaHei, Arial, sans-serif" font-size="28" font-weight="700" fill="#FFFFFF">07</text>
			<text x="150" y="242" font-family="Microsoft YaHei, Arial, sans-serif" font-size="25" font-weight="700" fill="#333F50">建议与求助</text>
			<line x1="450" y1="235" x2="1158" y2="235" stroke="#CFE1A8" stroke-width="1.5" stroke-dasharray="4 4" />
			<polygon points="1098,226 1235,226 1218,236 1081,236" fill="#98D600" />
		</g>
	</g>

	<g>
		<rect x="0" y="640" width="1280" height="80" fill="#FAFBFC" />
		<line x1="0" y1="640" x2="1280" y2="640" stroke="#E5E7EB" stroke-width="1" />
		<text x="44" y="676" font-family="Microsoft YaHei, Arial, sans-serif" font-size="12" font-weight="400" fill="#7F8C8D">Source: Probation Presentation Structure</text>
		<text x="44" y="700" font-family="Microsoft YaHei, Arial, sans-serif" font-size="11" font-weight="400" fill="#B8C0C2">固定目录页，不参与动态占位替换</text>
		<path fill="#88C100" d="M1144,654 H1218 A4,4 0 0 1 1222,658 V680 A4,4 0 0 1 1218,684 H1144 A4,4 0 0 1 1140,680 V658 A4,4 0 0 1 1144,654 Z" />
		<text x="1181" y="675" text-anchor="middle" font-family="Microsoft YaHei, Arial, sans-serif" font-size="14" font-weight="700" fill="#FFFFFF">TOC</text>
	</g>
</svg>