<?xml version="1.0" encoding="UTF-8"?>
<svg xmlns="http://www.w3.org/2000/svg" viewBox="0 0 1280 720">
	<rect width="1280" height="720" fill="#FFFFFF" />

	<g>
		<rect x="34" y="28" width="44" height="35" fill="#92D050" stroke="#85BB05" stroke-width="1.5" />
		<rect x="86" y="28" width="8" height="35" fill="#92D050" stroke="#85BB05" stroke-width="1.5" />
		<line x1="28" y1="76" x2="710" y2="76" stroke="#92D050" stroke-width="3.5" />
		<line x1="728" y1="76" x2="761" y2="76" stroke="#7F7F7F" stroke-width="3.5" />
		<line x1="778" y1="76" x2="812" y2="76" stroke="#7F7F7F" stroke-width="3.5" />
		<text x="1114" y="48" font-family="Microsoft YaHei, Arial, sans-serif" font-size="24" font-weight="700" fill="#88C100">RECRUIT</text>
	</g>

	<g>
		<text x="105" y="67" font-family="Microsoft YaHei, Arial, sans-serif" font-size="37" font-weight="400" fill="#333F50">一、</text>
		<text x="162" y="68" font-family="Microsoft YaHei, Arial, sans-serif" font-size="37" font-weight="700" fill="#333F50">个人背景与岗位定位</text>
		<text x="1180" y="67" text-anchor="end" font-family="Microsoft YaHei, Arial, sans-serif" font-size="16" font-weight="400" fill="#7F7F7F">个人背景与岗位认知</text>
	</g>

	<g>
		<path fill="#F6FBE8" stroke="#92D050" stroke-width="1.2" d="M46,102 H1234 A6,6 0 0 1 1240,108 V148 A6,6 0 0 1 1234,154 H46 A6,6 0 0 1 40,148 V108 A6,6 0 0 1 46,102 Z" />
		<path fill="#88C100" d="M43,102 H43 A3,3 0 0 1 46,105 V151 A3,3 0 0 1 43,154 H43 A3,3 0 0 1 40,151 V105 A3,3 0 0 1 43,102 Z" />
		<text x="62" y="133" font-family="Microsoft YaHei, Arial, sans-serif" font-size="15" font-weight="700" fill="#6B8E00">KEY MESSAGE</text>
		<text x="186" y="133" font-family="Microsoft YaHei, Arial, sans-serif" font-size="15" font-weight="400" fill="#5D6D7E">从教育积累到 5 年研发实践，再到入职后快速切入核心业务，已完成从经验迁移到岗位担当的衔接。</text>
	</g>


    <g>
        <path fill="#FFFFFF" stroke="#D8E7B4" stroke-width="1.5" d="M48,176 H1232 A8,8 0 0 1 1240,184 V598 A8,8 0 0 1 1232,606 H48 A8,8 0 0 1 40,598 V184 A8,8 0 0 1 48,176 Z" />
        <path fill="#F8FBF0" d="M72,214 C228,170 420,188 600,226 C760,259 923,252 1174,186 L1174,258 C1011,302 846,317 660,286 C455,252 241,250 72,292 Z" />
        <path d="M96,486 L350,410 L620,446 L882,330 L1100,262" fill="none" stroke="#E7F0D8" stroke-width="20" stroke-linecap="round" stroke-linejoin="round" />
        <path d="M96,486 L350,410 L620,446 L882,330 L1100,262" fill="none" stroke="#B9D99E" stroke-width="8" stroke-linecap="round" stroke-linejoin="round" />
        <path d="M1100,262 L1148,222" fill="none" stroke="#B9D99E" stroke-width="8" stroke-linecap="round" />
        <path d="M1142,214 L1178,214 L1156,247 Z" fill="#7F8C8D" />

        <circle cx="350" cy="410" r="38" fill="#A8C66C" />
        <circle cx="620" cy="446" r="36" fill="#88C100" />
        <circle cx="882" cy="330" r="39" fill="#6FAE43" />
        <circle cx="1100" cy="262" r="48" fill="#6CC04A" fill-opacity="0.18" />
        <circle cx="1100" cy="262" r="40" fill="#6CC04A" />

        <text x="350" y="419" text-anchor="middle" font-family="Microsoft YaHei, Arial, sans-serif" font-size="26" font-weight="700" fill="#FFFFFF">2016</text>
        <text x="620" y="455" text-anchor="middle" font-family="Microsoft YaHei, Arial, sans-serif" font-size="26" font-weight="700" fill="#FFFFFF">2019</text>
        <text x="882" y="339" text-anchor="middle" font-family="Microsoft YaHei, Arial, sans-serif" font-size="26" font-weight="700" fill="#FFFFFF">2025</text>
        <text x="1100" y="271" text-anchor="middle" font-family="Microsoft YaHei, Arial, sans-serif" font-size="24" font-weight="700" fill="#FFFFFF">当前</text>

        <text x="200" y="300" font-family="Microsoft YaHei, Arial, sans-serif" font-size="28" font-weight="700" fill="#7FA53A">教育背景</text>
        <text x="128" y="338" font-family="Microsoft YaHei, Arial, sans-serif" font-size="18" font-weight="400" fill="#5D6D7E">2016-2020 华南农业大学 软件工程</text>
        <text x="146" y="366" font-family="Microsoft YaHei, Arial, sans-serif" font-size="18" font-weight="400" fill="#5D6D7E">完成研发基础能力建立</text>

        <text x="520" y="574" font-family="Microsoft YaHei, Arial, sans-serif" font-size="28" font-weight="700" fill="#88C100">前司研发经历</text>
        <text x="420" y="610" font-family="Microsoft YaHei, Arial, sans-serif" font-size="18" font-weight="400" fill="#5D6D7E">2019-2025 深圳乐信控股有限公司</text>
        <text x="442" y="638" font-family="Microsoft YaHei, Arial, sans-serif" font-size="18" font-weight="400" fill="#5D6D7E">积累复杂业务交付与系统建设经验</text>

        <text x="760" y="194" font-family="Microsoft YaHei, Arial, sans-serif" font-size="28" font-weight="700" fill="#5F9E32">入职当前公司</text>
        <text x="724" y="228" font-family="Microsoft YaHei, Arial, sans-serif" font-size="18" font-weight="400" fill="#5D6D7E">2025.10 入职后快速切入会员、营销活动、运营平台</text>
        <text x="736" y="256" font-family="Microsoft YaHei, Arial, sans-serif" font-size="18" font-weight="400" fill="#5D6D7E">完成从经验迁移到业务承担的过渡</text>

        <path fill="#F7FBF4" stroke="#B9D99E" stroke-width="1.4" d="M896,390 H1188 A12,12 0 0 1 1200,402 V548 A12,12 0 0 1 1188,560 H896 A12,12 0 0 1 884,548 V402 A12,12 0 0 1 896,390 Z" />
        <path fill="#6CC04A" d="M889,390 H1195 A5,5 0 0 1 1200,395 V395 A5,5 0 0 1 1195,400 H889 A5,5 0 0 1 884,395 V395 A5,5 0 0 1 889,390 Z" />
        <text x="906" y="432" font-family="Microsoft YaHei, Arial, sans-serif" font-size="24" font-weight="700" fill="#4D7E2E">当前岗位定位</text>
        <text x="906" y="468" font-family="Microsoft YaHei, Arial, sans-serif" font-size="18" font-weight="400" fill="#333F50">后端开发工程师</text>
        <text x="906" y="496" font-family="Microsoft YaHei, Arial, sans-serif" font-size="18" font-weight="400" fill="#333F50">负责活动系统、会员权益、运营配置平台</text>
        <text x="906" y="524" font-family="Microsoft YaHei, Arial, sans-serif" font-size="18" font-weight="400" fill="#333F50">兼顾交付效率、系统质量与复用沉淀</text>

        <path fill="#FFFFFF" stroke="#DDEACF" stroke-width="1" d="M906,574 H1040 A18,18 0 0 1 1058,592 V592 A18,18 0 0 1 1040,610 H906 A18,18 0 0 1 888,592 V592 A18,18 0 0 1 906,574 Z" />
        <path fill="#FFFFFF" stroke="#DDEACF" stroke-width="1" d="M1070,574 H1168 A18,18 0 0 1 1186,592 V592 A18,18 0 0 1 1168,610 H1070 A18,18 0 0 1 1052,592 V592 A18,18 0 0 1 1070,574 Z" />
        <path fill="#FFFFFF" stroke="#DDEACF" stroke-width="1" d="M906,620 H1022 A18,18 0 0 1 1040,638 V638 A18,18 0 0 1 1022,656 H906 A18,18 0 0 1 888,638 V638 A18,18 0 0 1 906,620 Z" />
        <path fill="#FFFFFF" stroke="#DDEACF" stroke-width="1" d="M1052,620 H1168 A18,18 0 0 1 1186,638 V638 A18,18 0 0 1 1168,656 H1052 A18,18 0 0 1 1034,638 V638 A18,18 0 0 1 1052,620 Z" />
        <text x="973" y="598" text-anchor="middle" font-family="Microsoft YaHei, Arial, sans-serif" font-size="16" font-weight="700" fill="#4F5B66">复杂需求拆解</text>
        <text x="1119" y="598" text-anchor="middle" font-family="Microsoft YaHei, Arial, sans-serif" font-size="16" font-weight="700" fill="#4F5B66">平台化设计</text>
        <text x="964" y="644" text-anchor="middle" font-family="Microsoft YaHei, Arial, sans-serif" font-size="16" font-weight="700" fill="#4F5B66">项目统筹推进</text>
        <text x="1110" y="644" text-anchor="middle" font-family="Microsoft YaHei, Arial, sans-serif" font-size="16" font-weight="700" fill="#4F5B66">AI 协同研发</text>

        <path fill="#F6FBE8" stroke="#CFE1A8" stroke-width="1" d="M64,556 H816 A8,8 0 0 1 824,564 V582 A8,8 0 0 1 816,590 H64 A8,8 0 0 1 56,582 V564 A8,8 0 0 1 64,556 Z" />
        <path fill="#88C100" d="M59,556 H59 A3,3 0 0 1 62,559 V587 A3,3 0 0 1 59,590 H59 A3,3 0 0 1 56,587 V559 A3,3 0 0 1 59,556 Z" />
        <text x="76" y="579" font-family="Microsoft YaHei, Arial, sans-serif" font-size="18" font-weight="700" fill="#4F5B66">已完成从既有研发经验到当前岗位担当的衔接，具备独立承接复杂事项的基础。</text>
    </g>

	<g>
		<rect x="0" y="640" width="1280" height="80" fill="#FAFBFC" />
		<line x1="0" y1="640" x2="1280" y2="640" stroke="#E5E7EB" stroke-width="1" />
		<text x="44" y="676" font-family="Microsoft YaHei, Arial, sans-serif" font-size="12" font-weight="400" fill="#7F8C8D">Source: sources/personal_material.md | sources/content_requirement.md</text>
		<text x="44" y="700" font-family="Microsoft YaHei, Arial, sans-serif" font-size="11" font-weight="400" fill="#B8C0C2">Template: 03_content.svg | layout: background and growth path</text>
		<path fill="#88C100" d="M1144,654 H1218 A4,4 0 0 1 1222,658 V680 A4,4 0 0 1 1218,684 H1144 A4,4 0 0 1 1140,680 V658 A4,4 0 0 1 1144,654 Z" />
		<text x="1181" y="675" text-anchor="middle" font-family="Microsoft YaHei, Arial, sans-serif" font-size="14" font-weight="700" fill="#FFFFFF">03</text>
	</g>
</svg>