<svg xmlns="http://www.w3.org/2000/svg" viewBox="0 0 1280 720">
	<rect width="1280" height="720" fill="#FFFFFF" />

	<g>
		<rect x="34" y="28" width="44" height="35" fill="#92D050" stroke="#85BB05" stroke-width="1.5" />
		<rect x="86" y="28" width="8" height="35" fill="#92D050" stroke="#85BB05" stroke-width="1.5" />
		<line x1="28" y1="76" x2="710" y2="76" stroke="#92D050" stroke-width="3.5" />
		<line x1="728" y1="76" x2="761" y2="76" stroke="#7F7F7F" stroke-width="3.5" />
		<line x1="778" y1="76" x2="812" y2="76" stroke="#7F7F7F" stroke-width="3.5" />
		<text x="1114" y="48" font-family="Microsoft YaHei, Arial, sans-serif" font-size="24" font-weight="700" fill="#88C100">RECRUIT</text>
	</g>

	<g>
		<text x="105" y="67" font-family="Microsoft YaHei, Arial, sans-serif" font-size="37" font-weight="400" fill="#333F50">二、</text>
		<text x="162" y="68" font-family="Microsoft YaHei, Arial, sans-serif" font-size="37" font-weight="700" fill="#333F50">岗位认知与试用期目标</text>
		<text x="1180" y="67" text-anchor="end" font-family="Microsoft YaHei, Arial, sans-serif" font-size="16" font-weight="400" fill="#7F7F7F">01 BACKGROUND</text>
	</g>

	<g>
		<path fill="#F6FBE8" stroke="#92D050" stroke-width="1.2" d="M46,102 H1234 A6,6 0 0 1 1240,108 V148 A6,6 0 0 1 1234,154 H46 A6,6 0 0 1 40,148 V108 A6,6 0 0 1 46,102 Z" />
		<path fill="#88C100" d="M43,102 H43 A3,3 0 0 1 46,105 V151 A3,3 0 0 1 43,154 H43 A3,3 0 0 1 40,151 V105 A3,3 0 0 1 43,102 Z" />
		<text x="62" y="133" font-family="Microsoft YaHei, Arial, sans-serif" font-size="15" font-weight="700" fill="#6B8E00">KEY MESSAGE</text>
		<text x="186" y="133" font-family="Microsoft YaHei, Arial, sans-serif" font-size="15" font-weight="400" fill="#5D6D7E">用试用期实际交付结果，反证我对岗位要求的理解。</text>
	</g>

	<g>
		<path fill="none" stroke="#D8E7B4" stroke-width="1.5" stroke-dasharray="10 7" d="M48,176 H1232 A8,8 0 0 1 1240,184 V598 A8,8 0 0 1 1232,606 H48 A8,8 0 0 1 40,598 V184 A8,8 0 0 1 48,176 Z" />
		<path fill="#FFFFFF" stroke="#D8E7B4" stroke-width="1.2" d="M72,210 H392 A14,14 0 0 1 406,224 V416 A14,14 0 0 1 392,430 H72 A14,14 0 0 1 58,416 V224 A14,14 0 0 1 72,210 Z" /><path fill="#6B8E00" d="M62,210 H402 A4,4 0 0 1 406,214 V214 A4,4 0 0 1 402,218 H62 A4,4 0 0 1 58,214 V214 A4,4 0 0 1 62,210 Z" /><text x="78" y="248" text-anchor="start" font-family="Microsoft YaHei, Arial, sans-serif" font-size="14" font-weight="700" fill="#6B8E00">ROLE</text><text font-size="21" fill="#2C3E50" font-weight="700" font-family="Microsoft YaHei, Arial, sans-serif" x="78" y="282">试用期举证</text><text font-size="17" fill="#5D6D7E" font-weight="400" font-family="Microsoft YaHei, Arial, sans-serif" x="78" y="322">活动项目四期按期交付</text><text font-size="17" fill="#5D6D7E" font-weight="400" font-family="Microsoft YaHei, Arial, sans-serif" x="78" y="348">规则引擎从0到1独立落地</text><text font-size="17" fill="#5D6D7E" font-weight="400" font-family="Microsoft YaHei, Arial, sans-serif" x="78" y="374">CRM与转盘优化体现提效</text><path fill="#FFFFFF" stroke="#D8E7B4" stroke-width="1.2" d="M480,210 H800 A14,14 0 0 1 814,224 V416 A14,14 0 0 1 800,430 H480 A14,14 0 0 1 466,416 V224 A14,14 0 0 1 480,210 Z" /><path fill="#88C100" d="M470,210 H810 A4,4 0 0 1 814,214 V214 A4,4 0 0 1 810,218 H470 A4,4 0 0 1 466,214 V214 A4,4 0 0 1 470,210 Z" /><text x="486" y="248" text-anchor="start" font-family="Microsoft YaHei, Arial, sans-serif" font-size="14" font-weight="700" fill="#88C100">TARGET</text><text font-size="21" fill="#2C3E50" font-weight="700" font-family="Microsoft YaHei, Arial, sans-serif" x="486" y="282">岗位理解</text><text font-size="17" fill="#5D6D7E" font-weight="400" font-family="Microsoft YaHei, Arial, sans-serif" x="486" y="322">关键项目里要扛住结果</text><text font-size="17" fill="#5D6D7E" font-weight="400" font-family="Microsoft YaHei, Arial, sans-serif" x="486" y="348">复杂问题上要给出方案</text><text font-size="17" fill="#5D6D7E" font-weight="400" font-family="Microsoft YaHei, Arial, sans-serif" x="486" y="374">一次性交付要沉淀为复用能力</text><path fill="#FFFFFF" stroke="#D8E7B4" stroke-width="1.2" d="M888,210 H1208 A14,14 0 0 1 1222,224 V416 A14,14 0 0 1 1208,430 H888 A14,14 0 0 1 874,416 V224 A14,14 0 0 1 888,210 Z" /><path fill="#4D7E2E" d="M878,210 H1218 A4,4 0 0 1 1222,214 V214 A4,4 0 0 1 1218,218 H878 A4,4 0 0 1 874,214 V214 A4,4 0 0 1 878,210 Z" /><text x="894" y="248" text-anchor="start" font-family="Microsoft YaHei, Arial, sans-serif" font-size="14" font-weight="700" fill="#4D7E2E">STANDARD</text><text font-size="21" fill="#2C3E50" font-weight="700" font-family="Microsoft YaHei, Arial, sans-serif" x="894" y="282">对自己的要求</text><text font-size="17" fill="#5D6D7E" font-weight="400" font-family="Microsoft YaHei, Arial, sans-serif" x="894" y="322">覆盖项目负责、独立建设、效率优化</text><text font-size="17" fill="#5D6D7E" font-weight="400" font-family="Microsoft YaHei, Arial, sans-serif" x="894" y="348">让团队能放心交付复杂事项</text><path fill="#F6FBE8" d="M74,470 H1206 A16,16 0 0 1 1222,486 V548 A16,16 0 0 1 1206,564 H74 A16,16 0 0 1 58,548 V486 A16,16 0 0 1 74,470 Z" /><text font-size="26" fill="#6B8E00" font-weight="700" font-family="Microsoft YaHei, Arial, sans-serif" x="86" y="520">试用期要证明的，不只是做了多少功能，而是能否持续承担复杂事项。</text><text x="640" y="424" text-anchor="middle" font-family="Microsoft YaHei, Arial, sans-serif" font-size="14" font-weight="400" fill="#C7CFD1">Content Area: 1200 × 430 px</text>
	</g>

	<g>
		<rect x="0" y="640" width="1280" height="80" fill="#FAFBFC" />
		<line x1="0" y1="640" x2="1280" y2="640" stroke="#E5E7EB" stroke-width="1" />
		<text x="44" y="676" font-family="Microsoft YaHei, Arial, sans-serif" font-size="12" font-weight="400" fill="#7F8C8D">Source: sources/personal_material.md | sources/content_requirement.md</text>
		<text x="44" y="700" font-family="Microsoft YaHei, Arial, sans-serif" font-size="11" font-weight="400" fill="#B8C0C2">Template: 03_content.svg | layout: objective cards</text>
		<path fill="#88C100" d="M1144,654 H1218 A4,4 0 0 1 1222,658 V680 A4,4 0 0 1 1218,684 H1144 A4,4 0 0 1 1140,680 V658 A4,4 0 0 1 1144,654 Z" />
		<text x="1181" y="675" text-anchor="middle" font-family="Microsoft YaHei, Arial, sans-serif" font-size="14" font-weight="700" fill="#FFFFFF">04</text>
	</g>
</svg>