<svg xmlns="http://www.w3.org/2000/svg" viewBox="0 0 1280 720">
  <rect width="1280" height="720" fill="#FFFFFF" />
  <g>
    <rect x="34" y="28" width="44" height="35" fill="#92D050" stroke="#85BB05" stroke-width="1.5" />
    <rect x="86" y="28" width="8" height="35" fill="#92D050" stroke="#85BB05" stroke-width="1.5" />
    <line x1="28" y1="76" x2="710" y2="76" stroke="#92D050" stroke-width="3.5" />
    <line x1="728" y1="76" x2="761" y2="76" stroke="#7F7F7F" stroke-width="3.5" />
    <line x1="778" y1="76" x2="812" y2="76" stroke="#7F7F7F" stroke-width="3.5" />
    <text x="1114" y="48" font-family="Microsoft YaHei, Arial, sans-serif" font-size="24" font-weight="700" fill="#88C100">RECRUIT</text>
  </g>
  <g>
    <text x="105" y="67" font-family="Microsoft YaHei, Arial, sans-serif" font-size="37" font-weight="400" fill="#333F50">三、</text>
    <text x="162" y="68" font-family="Microsoft YaHei, Arial, sans-serif" font-size="37" font-weight="700" fill="#333F50">6个月整体产出与量化结果</text>
    <text x="1180" y="67" text-anchor="end" font-family="Microsoft YaHei, Arial, sans-serif" font-size="16" font-weight="400" fill="#7F7F7F">个人绩效</text>
  </g>
  <g>
    <path fill="#F6FBE8" stroke="#92D050" stroke-width="1.2" d="M46,102 H1234 A6,6 0 0 1 1240,108 V148 A6,6 0 0 1 1234,154 H46 A6,6 0 0 1 40,148 V108 A6,6 0 0 1 46,102 Z" />
    <path fill="#88C100" d="M43,102 H43 A3,3 0 0 1 46,105 V151 A3,3 0 0 1 43,154 H43 A3,3 0 0 1 40,151 V105 A3,3 0 0 1 43,102 Z" />
    <text x="62" y="133" font-family="Microsoft YaHei, Arial, sans-serif" font-size="15" font-weight="700" fill="#6B8E00">KEY MESSAGE</text>
    <text x="186" y="133" font-family="Microsoft YaHei, Arial, sans-serif" font-size="15" font-weight="400" fill="#5D6D7E">工作覆盖交付、优化、系统建设和复用沉淀四个层面。</text>
  </g>
  <g>
    <path fill="#FFFFFF" stroke="#D8E7B4" stroke-width="1.5" d="M48,176 H1232 A8,8 0 0 1 1240,184 V598 A8,8 0 0 1 1232,606 H48 A8,8 0 0 1 40,598 V184 A8,8 0 0 1 48,176 Z" />
    <path fill="#F8FBEF" stroke="#CFE1A8" stroke-width="1.2" d="M70,198 H318 A12,12 0 0 1 330,210 V304 A12,12 0 0 1 318,316 H70 A12,12 0 0 1 58,304 V210 A12,12 0 0 1 70,198 Z" /><path fill="#88C100" fill-opacity="0.14" d="M82,214 H114 A8,8 0 0 1 122,222 V254 A8,8 0 0 1 114,262 H82 A8,8 0 0 1 74,254 V222 A8,8 0 0 1 82,214 Z" /><text font-weight="700" font-family="Microsoft YaHei, Arial, sans-serif" font-size="18" fill="#5D6D7E" x="138" y="236">试用期交付</text><text font-weight="700" font-family="Microsoft YaHei, Arial, sans-serif" font-size="28" fill="#333F50" x="82" y="290">累计 8 个需求</text><path fill="#F8FBEF" stroke="#CFE1A8" stroke-width="1.2" d="M374,198 H622 A12,12 0 0 1 634,210 V304 A12,12 0 0 1 622,316 H374 A12,12 0 0 1 362,304 V210 A12,12 0 0 1 374,198 Z" /><path fill="#88C100" fill-opacity="0.14" d="M386,214 H418 A8,8 0 0 1 426,222 V254 A8,8 0 0 1 418,262 H386 A8,8 0 0 1 378,254 V222 A8,8 0 0 1 386,214 Z" /><text font-weight="700" font-family="Microsoft YaHei, Arial, sans-serif" font-size="18" fill="#5D6D7E" x="442" y="236">独立负责</text><text font-weight="700" font-family="Microsoft YaHei, Arial, sans-serif" font-size="28" fill="#333F50" x="386" y="290">8 个项目 / 事项</text><path fill="#F8FBEF" stroke="#CFE1A8" stroke-width="1.2" d="M678,198 H926 A12,12 0 0 1 938,210 V304 A12,12 0 0 1 926,316 H678 A12,12 0 0 1 666,304 V210 A12,12 0 0 1 678,198 Z" /><path fill="#88C100" fill-opacity="0.14" d="M690,214 H722 A8,8 0 0 1 730,222 V254 A8,8 0 0 1 722,262 H690 A8,8 0 0 1 682,254 V222 A8,8 0 0 1 690,214 Z" /><text font-weight="700" font-family="Microsoft YaHei, Arial, sans-serif" font-size="18" fill="#5D6D7E" x="746" y="236">按期交付率</text><text font-weight="700" font-family="Microsoft YaHei, Arial, sans-serif" font-size="28" fill="#333F50" x="690" y="290">100%</text><path fill="#F8FBEF" stroke="#CFE1A8" stroke-width="1.2" d="M982,198 H1230 A12,12 0 0 1 1242,210 V304 A12,12 0 0 1 1230,316 H982 A12,12 0 0 1 970,304 V210 A12,12 0 0 1 982,198 Z" /><path fill="#88C100" fill-opacity="0.14" d="M994,214 H1026 A8,8 0 0 1 1034,222 V254 A8,8 0 0 1 1026,262 H994 A8,8 0 0 1 986,254 V222 A8,8 0 0 1 994,214 Z" /><text font-weight="700" font-family="Microsoft YaHei, Arial, sans-serif" font-size="18" fill="#5D6D7E" x="1050" y="236">查询优化</text><text font-weight="700" font-family="Microsoft YaHei, Arial, sans-serif" font-size="28" fill="#333F50" x="994" y="290">8s → 500ms</text><path fill="#F8FBEF" stroke="#CFE1A8" stroke-width="1.2" d="M70,344 H318 A12,12 0 0 1 330,356 V450 A12,12 0 0 1 318,462 H70 A12,12 0 0 1 58,450 V356 A12,12 0 0 1 70,344 Z" /><path fill="#88C100" fill-opacity="0.14" d="M82,360 H114 A8,8 0 0 1 122,368 V400 A8,8 0 0 1 114,408 H82 A8,8 0 0 1 74,400 V368 A8,8 0 0 1 82,360 Z" /><text font-weight="700" font-family="Microsoft YaHei, Arial, sans-serif" font-size="18" fill="#5D6D7E" x="138" y="382">节日活动首期</text><text font-weight="700" font-family="Microsoft YaHei, Arial, sans-serif" font-size="28" fill="#333F50" x="82" y="436">19 个工作日上线</text><path fill="#F8FBEF" stroke="#CFE1A8" stroke-width="1.2" d="M374,344 H622 A12,12 0 0 1 634,356 V450 A12,12 0 0 1 622,462 H374 A12,12 0 0 1 362,450 V356 A12,12 0 0 1 374,344 Z" /><path fill="#88C100" fill-opacity="0.14" d="M386,360 H418 A8,8 0 0 1 426,368 V400 A8,8 0 0 1 418,408 H386 A8,8 0 0 1 378,400 V368 A8,8 0 0 1 386,360 Z" /><text font-weight="700" font-family="Microsoft YaHei, Arial, sans-serif" font-size="18" fill="#5D6D7E" x="442" y="382">积分提醒覆盖</text><text font-weight="700" font-family="Microsoft YaHei, Arial, sans-serif" font-size="28" fill="#333F50" x="386" y="436">40w+ 用户</text><path fill="#F8FBEF" stroke="#CFE1A8" stroke-width="1.2" d="M678,344 H926 A12,12 0 0 1 938,356 V450 A12,12 0 0 1 926,462 H678 A12,12 0 0 1 666,450 V356 A12,12 0 0 1 678,344 Z" /><path fill="#88C100" fill-opacity="0.14" d="M690,360 H722 A8,8 0 0 1 730,368 V400 A8,8 0 0 1 722,408 H690 A8,8 0 0 1 682,400 V368 A8,8 0 0 1 690,360 Z" /><text font-weight="700" font-family="Microsoft YaHei, Arial, sans-serif" font-size="18" fill="#5D6D7E" x="746" y="382">转盘配置化</text><text font-weight="700" font-family="Microsoft YaHei, Arial, sans-serif" font-size="28" fill="#333F50" x="690" y="436">1 天 → 2h</text><path fill="#88C100" fill-opacity="0.08" stroke="#CFE1A8" stroke-width="1.2" d="M982,344 H1190 A12,12 0 0 1 1202,356 V450 A12,12 0 0 1 1190,462 H982 A12,12 0 0 1 970,450 V356 A12,12 0 0 1 982,344 Z" /><text font-weight="700" font-family="Microsoft YaHei, Arial, sans-serif" font-size="20" fill="#6B8E00" x="992" y="378">结果覆盖面</text><text font-weight="700" font-family="Microsoft YaHei, Arial, sans-serif" font-size="22" fill="#333F50" x="992" y="416">交付</text><text font-weight="700" font-family="Microsoft YaHei, Arial, sans-serif" font-size="22" fill="#333F50" x="992" y="444">效率</text><text font-weight="700" font-family="Microsoft YaHei, Arial, sans-serif" font-size="22" fill="#333F50" x="992" y="472">影响</text><text font-weight="700" font-family="Microsoft YaHei, Arial, sans-serif" font-size="22" fill="#333F50" x="992" y="500">复用沉淀</text><path fill="#F6FBE8" stroke="#CFE1A8" stroke-width="1" d="M64,556 H1216 A8,8 0 0 1 1224,564 V582 A8,8 0 0 1 1216,590 H64 A8,8 0 0 1 56,582 V564 A8,8 0 0 1 64,556 Z" /><path fill="#88C100" d="M59,556 H59 A3,3 0 0 1 62,559 V587 A3,3 0 0 1 59,590 H59 A3,3 0 0 1 56,587 V559 A3,3 0 0 1 59,556 Z" /><text font-weight="700" font-family="Microsoft YaHei, Arial, sans-serif" font-size="18" fill="#4F5B66" x="76" y="579">结果同时覆盖交付、效率、影响和复用价值，整体履职结果达到预期。</text></g>
  <g>
    <rect x="0" y="640" width="1280" height="80" fill="#FAFBFC" />
    <line x1="0" y1="640" x2="1280" y2="640" stroke="#E5E7EB" stroke-width="1" />
    <text x="44" y="676" font-family="Microsoft YaHei, Arial, sans-serif" font-size="12" font-weight="400" fill="#7F8C8D">Source: slide_copy_compact.md</text>
    <text x="44" y="700" font-family="Microsoft YaHei, Arial, sans-serif" font-size="11" font-weight="400" fill="#B8C0C2">指标页按模板卡片规范生成</text>
    <path fill="#88C100" d="M1144,654 H1218 A4,4 0 0 1 1222,658 V680 A4,4 0 0 1 1218,684 H1144 A4,4 0 0 1 1140,680 V658 A4,4 0 0 1 1144,654 Z" />
    <text x="1181" y="675" text-anchor="middle" font-family="Microsoft YaHei, Arial, sans-serif" font-size="14" font-weight="700" fill="#FFFFFF">05</text>
  </g>
</svg>