<svg xmlns="http://www.w3.org/2000/svg" viewBox="0 0 1280 720">
  <rect width="1280" height="720" fill="#FFFFFF" />
  <g>
    <rect x="34" y="28" width="44" height="35" fill="#92D050" stroke="#85BB05" stroke-width="1.5" />
    <rect x="86" y="28" width="8" height="35" fill="#92D050" stroke="#85BB05" stroke-width="1.5" />
    <line x1="28" y1="76" x2="710" y2="76" stroke="#92D050" stroke-width="3.5" />
    <line x1="728" y1="76" x2="761" y2="76" stroke="#7F7F7F" stroke-width="3.5" />
    <line x1="778" y1="76" x2="812" y2="76" stroke="#7F7F7F" stroke-width="3.5" />
    <text x="1114" y="48" font-family="Microsoft YaHei, Arial, sans-serif" font-size="24" font-weight="700" fill="#88C100">RECRUIT</text>
  </g>
  <g>
    <text x="105" y="67" font-family="Microsoft YaHei, Arial, sans-serif" font-size="37" font-weight="400" fill="#333F50">八、</text>
    <text x="162" y="68" font-family="Microsoft YaHei, Arial, sans-serif" font-size="37" font-weight="700" fill="#333F50">不足与提升计划</text>
    <text x="1180" y="67" text-anchor="end" font-family="Microsoft YaHei, Arial, sans-serif" font-size="16" font-weight="400" fill="#7F7F7F">个人的不足和提升计划</text>
  </g>
  <g>
    <path fill="#F6FBE8" stroke="#92D050" stroke-width="1.2" d="M46,102 H1234 A6,6 0 0 1 1240,108 V148 A6,6 0 0 1 1234,154 H46 A6,6 0 0 1 40,148 V108 A6,6 0 0 1 46,102 Z" />
    <path fill="#88C100" d="M43,102 H43 A3,3 0 0 1 46,105 V151 A3,3 0 0 1 43,154 H43 A3,3 0 0 1 40,151 V105 A3,3 0 0 1 43,102 Z" />
    <text x="62" y="133" font-family="Microsoft YaHei, Arial, sans-serif" font-size="15" font-weight="700" fill="#6B8E00">KEY MESSAGE</text>
    <text x="186" y="133" font-family="Microsoft YaHei, Arial, sans-serif" font-size="15" font-weight="400" fill="#5D6D7E">已识别在量化、业务纵深和团队级规范方面的提升空间。</text>
  </g>
  <g>
    <path fill="#FFFFFF" stroke="#D8E7B4" stroke-width="1.5" d="M48,176 H1232 A8,8 0 0 1 1240,184 V598 A8,8 0 0 1 1232,606 H48 A8,8 0 0 1 40,598 V184 A8,8 0 0 1 48,176 Z" />
    <path fill="#FFFFFF" stroke="#D8E7B4" stroke-width="1.2" d="M68,218 H1192 A10,10 0 0 1 1202,228 V304 A10,10 0 0 1 1192,314 H68 A10,10 0 0 1 58,304 V228 A10,10 0 0 1 68,218 Z" /><path fill="#88C100" d="M64,218 H64 A6,6 0 0 1 70,224 V308 A6,6 0 0 1 64,314 H64 A6,6 0 0 1 58,308 V224 A6,6 0 0 1 64,218 Z" /><text font-weight="700" font-family="Microsoft YaHei, Arial, sans-serif" font-size="21" fill="#333F50" x="92" y="252">结果量化不足</text><text font-weight="700" font-family="Microsoft YaHei, Arial, sans-serif" font-size="20" fill="#6B8E00" x="390" y="252">提前定义效果指标</text><text font-weight="400" font-family="Microsoft YaHei, Arial, sans-serif" font-size="18" fill="#5D6D7E" x="650" y="252">在项目开始阶段就同步效果口径，避免复盘时只有过程没有结果。</text><path fill="#FFFFFF" stroke="#D8E7B4" stroke-width="1.2" d="M68,330 H1192 A10,10 0 0 1 1202,340 V416 A10,10 0 0 1 1192,426 H68 A10,10 0 0 1 58,416 V340 A10,10 0 0 1 68,330 Z" /><path fill="#88C100" d="M64,330 H64 A6,6 0 0 1 70,336 V420 A6,6 0 0 1 64,426 H64 A6,6 0 0 1 58,420 V336 A6,6 0 0 1 64,330 Z" /><text font-weight="700" font-family="Microsoft YaHei, Arial, sans-serif" font-size="21" fill="#333F50" x="92" y="364">业务纵深不足</text><text font-weight="700" font-family="Microsoft YaHei, Arial, sans-serif" font-size="20" fill="#6B8E00" x="390" y="364">系统梳理会员与营销链路</text><text font-weight="400" font-family="Microsoft YaHei, Arial, sans-serif" font-size="18" fill="#5D6D7E" x="650" y="364">不只完成模块交付，还进一步补足业务全链路理解。</text><path fill="#FFFFFF" stroke="#D8E7B4" stroke-width="1.2" d="M68,442 H1192 A10,10 0 0 1 1202,452 V528 A10,10 0 0 1 1192,538 H68 A10,10 0 0 1 58,528 V452 A10,10 0 0 1 68,442 Z" /><path fill="#88C100" d="M64,442 H64 A6,6 0 0 1 70,448 V532 A6,6 0 0 1 64,538 H64 A6,6 0 0 1 58,532 V448 A6,6 0 0 1 64,442 Z" /><text font-weight="700" font-family="Microsoft YaHei, Arial, sans-serif" font-size="21" fill="#333F50" x="92" y="476">AI 规范沉淀不足</text><text font-weight="700" font-family="Microsoft YaHei, Arial, sans-serif" font-size="20" fill="#6B8E00" x="390" y="476">建设项目级 context 和协作规范</text><text font-weight="400" font-family="Microsoft YaHei, Arial, sans-serif" font-size="18" fill="#5D6D7E" x="650" y="476">把个人实践沉淀成团队可复用的方法论和协作约束。</text><path fill="#F6FBE8" stroke="#CFE1A8" stroke-width="1" d="M64,556 H1216 A8,8 0 0 1 1224,564 V582 A8,8 0 0 1 1216,590 H64 A8,8 0 0 1 56,582 V564 A8,8 0 0 1 64,556 Z" /><path fill="#88C100" d="M59,556 H59 A3,3 0 0 1 62,559 V587 A3,3 0 0 1 59,590 H59 A3,3 0 0 1 56,587 V559 A3,3 0 0 1 59,556 Z" /><text font-weight="700" font-family="Microsoft YaHei, Arial, sans-serif" font-size="18" fill="#4F5B66" x="76" y="579">每个不足都对应明确行动，目标是把改进变成可执行的计划，而不是停留在表态。</text></g>
  <g>
    <rect x="0" y="640" width="1280" height="80" fill="#FAFBFC" />
    <line x1="0" y1="640" x2="1280" y2="640" stroke="#E5E7EB" stroke-width="1" />
    <text x="44" y="676" font-family="Microsoft YaHei, Arial, sans-serif" font-size="12" font-weight="400" fill="#7F8C8D">Source: slide_copy_compact.md</text>
    <text x="44" y="700" font-family="Microsoft YaHei, Arial, sans-serif" font-size="11" font-weight="400" fill="#B8C0C2">不足页按问题-动作-说明三栏生成</text>
    <path fill="#88C100" d="M1144,654 H1218 A4,4 0 0 1 1222,658 V680 A4,4 0 0 1 1218,684 H1144 A4,4 0 0 1 1140,680 V658 A4,4 0 0 1 1144,654 Z" />
    <text x="1181" y="675" text-anchor="middle" font-family="Microsoft YaHei, Arial, sans-serif" font-size="14" font-weight="700" fill="#FFFFFF">10</text>
  </g>
</svg>