<?xml version="1.0" encoding="UTF-8"?>
<svg xmlns="http://www.w3.org/2000/svg" viewBox="0 0 1280 720">
	<rect width="1280" height="720" fill="#FFFFFF"/>

	<g>
		<rect x="34" y="28" width="44" height="35" fill="#92D050" stroke="#85BB05" stroke-width="1.5"/>
		<rect x="86" y="28" width="8" height="35" fill="#92D050" stroke="#85BB05" stroke-width="1.5"/>
		<line x1="28" y1="76" x2="710" y2="76" stroke="#92D050" stroke-width="3.5"/>
		<line x1="728" y1="76" x2="761" y2="76" stroke="#7F7F7F" stroke-width="3.5"/>
		<line x1="778" y1="76" x2="812" y2="76" stroke="#7F7F7F" stroke-width="3.5"/>
		<text x="1114" y="48" font-family="Microsoft YaHei, Arial, sans-serif" font-size="24" font-weight="700" fill="#88C100">RECRUIT</text>
	</g>

	<g>
		<text x="105" y="67" font-family="Microsoft YaHei, Arial, sans-serif" font-size="37" font-weight="400" fill="#333F50">三、</text>
		<text x="162" y="68" font-family="Microsoft YaHei, Arial, sans-serif" font-size="37" font-weight="700" fill="#333F50">整体产出与量化结果：全面达成与价值交付</text>
		<text x="1180" y="67" text-anchor="end" font-family="Microsoft YaHei, Arial, sans-serif" font-size="16" font-weight="400" fill="#7F7F7F">02 RESULTS</text>
	</g>

	<g>
		<rect x="40" y="102" width="1200" height="52" rx="6" fill="#F6FBE8" stroke="#92D050" stroke-width="1.2"/>
		<rect x="40" y="102" width="6" height="52" rx="3" fill="#88C100"/>
		<text x="62" y="133" font-family="Microsoft YaHei, Arial, sans-serif" font-size="15" font-weight="700" fill="#6B8E00">KEY MESSAGE</text>
		<text x="186" y="133" font-family="Microsoft YaHei, Arial, sans-serif" font-size="15" font-weight="400" fill="#5D6D7E">各项成果全面达成，在交付效率、系统性能和业务价值上均有显著贡献。</text>
	</g>

	<g>		<rect x="40" y="176" width="1200" height="430" rx="8" fill="#FFFFFF"/><rect x="58" y="188" width="356" height="372" rx="18" fill="#FFFFFF" stroke="#D8E7B4" stroke-width="1.4"/><circle cx="236" cy="274" r="54" fill="#F6FBE8"/><circle cx="236" cy="274" r="22" fill="none" stroke="#6B8E00" stroke-width="5"/><circle cx="236" cy="274" r="7" fill="#6B8E00"/><line x1="236" y1="244" x2="236" y2="258" stroke="#6B8E00" stroke-width="4" stroke-linecap="round"/><line x1="216" y1="304" x2="226" y2="288" stroke="#6B8E00" stroke-width="4" stroke-linecap="round"/><line x1="256" y1="304" x2="246" y2="288" stroke="#6B8E00" stroke-width="4" stroke-linecap="round"/><text x="236" y="366" text-anchor="middle" font-family="Microsoft YaHei, Arial, sans-serif" font-size="22" font-weight="700" fill="#2C3E50">核心业绩指标</text><line x1="100" y1="394" x2="372" y2="394" stroke="#D8E7B4" stroke-width="1.5"/><text x="226" y="438" text-anchor="end" font-family="Microsoft YaHei, Arial, sans-serif" font-size="17" font-weight="400" fill="#5D6D7E">重点事项覆盖:</text><text x="236" y="438" text-anchor="start" font-family="Microsoft YaHei, Arial, sans-serif" font-size="27" font-weight="700" fill="#6B8E00">10项</text><text x="226" y="480" text-anchor="end" font-family="Microsoft YaHei, Arial, sans-serif" font-size="17" font-weight="400" fill="#5D6D7E">已完成交付:</text><text x="236" y="480" text-anchor="start" font-family="Microsoft YaHei, Arial, sans-serif" font-size="27" font-weight="700" fill="#6B8E00">8项</text><text x="226" y="522" text-anchor="end" font-family="Microsoft YaHei, Arial, sans-serif" font-size="17" font-weight="400" fill="#5D6D7E">按期交付率:</text><text x="236" y="522" text-anchor="start" font-family="Microsoft YaHei, Arial, sans-serif" font-size="27" font-weight="700" fill="#6B8E00">100%</text><rect x="432" y="188" width="356" height="372" rx="18" fill="#FFFFFF" stroke="#D8E7B4" stroke-width="1.4"/><circle cx="610" cy="274" r="54" fill="#F6FBE8"/><path d="M 584 294 A 38 38 0 0 1 636 294" fill="none" stroke="#6B8E00" stroke-width="4" stroke-linecap="round"/><line x1="586" y1="284" x2="580" y2="278" stroke="#6B8E00" stroke-width="3" stroke-linecap="round"/><line x1="604" y1="272" x2="598" y2="264" stroke="#6B8E00" stroke-width="3" stroke-linecap="round"/><line x1="624" y1="272" x2="632" y2="264" stroke="#6B8E00" stroke-width="3" stroke-linecap="round"/><circle cx="610" cy="284" r="10" fill="#88C100" fill-opacity="0.22" stroke="#6B8E00" stroke-width="3"/><line x1="610" y1="284" x2="630" y2="266" stroke="#6B8E00" stroke-width="4" stroke-linecap="round"/><text x="610" y="366" text-anchor="middle" font-family="Microsoft YaHei, Arial, sans-serif" font-size="22" font-weight="700" fill="#2C3E50">效率与能力提升</text><line x1="474" y1="394" x2="746" y2="394" stroke="#D8E7B4" stroke-width="1.5"/><text x="600" y="438" text-anchor="end" font-family="Microsoft YaHei, Arial, sans-serif" font-size="17" font-weight="400" fill="#5D6D7E">CRM查询:</text><text x="610" y="438" text-anchor="start" font-family="Microsoft YaHei, Arial, sans-serif" font-size="27" font-weight="700" fill="#6B8E00">2s → 1s以下</text><text x="600" y="480" text-anchor="end" font-family="Microsoft YaHei, Arial, sans-serif" font-size="17" font-weight="400" fill="#5D6D7E">配置时间:</text><text x="610" y="480" text-anchor="start" font-family="Microsoft YaHei, Arial, sans-serif" font-size="27" font-weight="700" fill="#6B8E00">1天 → 2小时</text><text x="610" y="520" text-anchor="middle" font-family="Microsoft YaHei, Arial, sans-serif" font-size="16" font-weight="700" fill="#88C100">体验显著改善，复用性提升</text><rect x="806" y="188" width="356" height="372" rx="18" fill="#FFFFFF" stroke="#D8E7B4" stroke-width="1.4"/><circle cx="984" cy="274" r="54" fill="#F6FBE8"/><rect x="960" y="280" width="10" height="20" rx="2" fill="#6B8E00"/><rect x="976" y="272" width="10" height="28" rx="2" fill="#6B8E00"/><rect x="992" y="260" width="10" height="40" rx="2" fill="#6B8E00"/><path d="M 960 272 L 976 276 L 996 262 L 1004 250" fill="none" stroke="#6B8E00" stroke-width="4" stroke-linecap="round" stroke-linejoin="round"/><line x1="956" y1="308" x2="1012" y2="308" stroke="#6B8E00" stroke-width="4" stroke-linecap="round"/><text x="984" y="366" text-anchor="middle" font-family="Microsoft YaHei, Arial, sans-serif" font-size="22" font-weight="700" fill="#2C3E50">业务成果与价值</text><line x1="848" y1="394" x2="1120" y2="394" stroke="#D8E7B4" stroke-width="1.5"/><text x="974" y="438" text-anchor="end" font-family="Microsoft YaHei, Arial, sans-serif" font-size="17" font-weight="400" fill="#5D6D7E">积分提醒覆盖:</text><text x="984" y="438" text-anchor="start" font-family="Microsoft YaHei, Arial, sans-serif" font-size="27" font-weight="700" fill="#6B8E00">40w+</text><text x="974" y="480" text-anchor="end" font-family="Microsoft YaHei, Arial, sans-serif" font-size="17" font-weight="400" fill="#5D6D7E">拉新活动转化:</text><text x="984" y="480" text-anchor="start" font-family="Microsoft YaHei, Arial, sans-serif" font-size="27" font-weight="700" fill="#6B8E00">1992人</text><text x="974" y="522" text-anchor="end" font-family="Microsoft YaHei, Arial, sans-serif" font-size="17" font-weight="400" fill="#5D6D7E">活动参与人数:</text><text x="984" y="522" text-anchor="start" font-family="Microsoft YaHei, Arial, sans-serif" font-size="27" font-weight="700" fill="#6B8E00">16045人</text>	</g>

	<g>
		<rect x="0" y="640" width="1280" height="80" fill="#FAFBFC"/>
		<line x1="0" y1="640" x2="1280" y2="640" stroke="#E5E7EB" stroke-width="1"/>
		<text x="44" y="676" font-family="Microsoft YaHei, Arial, sans-serif" font-size="12" font-weight="400" fill="#7F8C8D">Source: sources/personal_material.md | sources/content_requirement.md</text>
		<text x="44" y="700" font-family="Microsoft YaHei, Arial, sans-serif" font-size="11" font-weight="400" fill="#B8C0C2">Template: 03_content.svg | layout: three summary panels</text>
		<rect x="1140" y="654" width="82" height="30" rx="4" fill="#88C100"/>
		<text x="1181" y="675" text-anchor="middle" font-family="Microsoft YaHei, Arial, sans-serif" font-size="14" font-weight="700" fill="#FFFFFF">05</text>
	</g>
</svg>